<?xml version="1.0" standalone="no"?><!-- Generator: Gravit.io --><svg xmlns="http://www.w3.org/2000/svg" xmlns:xlink="http://www.w3.org/1999/xlink" style="isolation:isolate" viewBox="0 0 1000 1024" width="1000" height="1024"><defs><clipPath id="_clipPath_s8UeD2MhJJjq2M8UY1XR46mYQ27ZKFA4"><rect width="1000" height="1024"/></clipPath></defs><g clip-path="url(#_clipPath_s8UeD2MhJJjq2M8UY1XR46mYQ27ZKFA4)"><g style="opacity:0.2;"><g><rect x="582" y="639" width="528" height="243" transform="matrix(1,0,0,1,0,0)" fill="rgb(235,235,235)" style="mix-blend-mode:multiply;"/><rect x="564" y="99" width="624" height="522" transform="matrix(1,0,0,1,0,0)" fill="rgb(235,235,235)" style="mix-blend-mode:multiply;"/><rect x="747" y="468" width="525" height="276" transform="matrix(1,0,0,1,0,0)" fill="rgb(235,235,235)" style="mix-blend-mode:multiply;"/></g><g><rect x="18" y="639" width="528" height="243" transform="matrix(1,0,0,1,0,0)" fill="rgb(235,235,235)" style="mix-blend-mode:multiply;"/><rect x="0" y="99" width="624" height="522" transform="matrix(1,0,0,1,0,0)" fill="rgb(235,235,235)" style="mix-blend-mode:multiply;"/><rect x="183" y="468" width="525" height="276" transform="matrix(1,0,0,1,0,0)" fill="rgb(235,235,235)" style="mix-blend-mode:multiply;"/></g></g><g style="opacity:0.2;"><g><rect x="582" y="1172.5" width="528" height="243" transform="matrix(1,0,0,1,0,0)" fill="rgb(235,235,235)" style="mix-blend-mode:multiply;"/><rect x="564" y="632.5" width="624" height="522" transform="matrix(1,0,0,1,0,0)" fill="rgb(235,235,235)" style="mix-blend-mode:multiply;"/><rect x="747" y="1001.5" width="525" height="276" transform="matrix(1,0,0,1,0,0)" fill="rgb(235,235,235)" style="mix-blend-mode:multiply;"/></g><g><rect x="18" y="1172.5" width="528" height="243" transform="matrix(1,0,0,1,0,0)" fill="rgb(235,235,235)" style="mix-blend-mode:multiply;"/><rect x="0" y="632.5" width="624" height="522" transform="matrix(1,0,0,1,0,0)" fill="rgb(235,235,235)" style="mix-blend-mode:multiply;"/><rect x="183" y="1001.5" width="525" height="276" transform="matrix(1,0,0,1,0,0)" fill="rgb(235,235,235)" style="mix-blend-mode:multiply;"/></g></g><g style="opacity:0.2;"><g><rect x="582" y="148.5" width="528" height="243" transform="matrix(1,0,0,1,0,0)" fill="rgb(235,235,235)" style="mix-blend-mode:multiply;"/><rect x="564" y="-391.5" width="624" height="522" transform="matrix(1,0,0,1,0,0)" fill="rgb(235,235,235)" style="mix-blend-mode:multiply;"/><rect x="747" y="-22.5" width="525" height="276" transform="matrix(1,0,0,1,0,0)" fill="rgb(235,235,235)" style="mix-blend-mode:multiply;"/></g><g><rect x="18" y="148.5" width="528" height="243" transform="matrix(1,0,0,1,0,0)" fill="rgb(235,235,235)" style="mix-blend-mode:multiply;"/><rect x="0" y="-391.5" width="624" height="522" transform="matrix(1,0,0,1,0,0)" fill="rgb(235,235,235)" style="mix-blend-mode:multiply;"/><rect x="183" y="-22.5" width="525" height="276" transform="matrix(1,0,0,1,0,0)" fill="rgb(235,235,235)" style="mix-blend-mode:multiply;"/></g></g></g></svg>