<svg version="1" xmlns="http://www.w3.org/2000/svg" width="933.333" height="933.333" viewBox="0 0 700.000000 700.000000"><path d="M220 108.5c-49.6 6.9-92.9 28.1-127 62.4-38.1 38.3-61.4 87.7-69.2 147.1-1.6 12.3-1.6 52.7 0 65 4.2 32.1 12.8 60.4 26.3 87 34.3 67.7 96.1 111.8 170.2 121.5 15.1 1.9 43.2 1.9 57.9 0 43.2-5.7 82.9-24.6 114.1-54.5 5.2-4.9 9.7-9 10.1-9 .3 0 .6 11.7.6 26v26h157V120H401v43.3l-2.9-2.4c-1.6-1.3-6-5-9.7-8.2-26.9-22.9-63.6-38.4-103.5-43.7-17.8-2.4-49.6-2.6-64.9-.5zm105.1 136.8c23.2 6.1 42.1 18.1 56.3 35.8 32.8 41.1 30.8 105.7-4.4 144.2-37.8 41.4-112.1 43.8-154 5.1-14.6-13.6-24.4-31.5-30.2-55.4-.8-3.6-1.3-12-1.3-24.5 0-16.1.4-20.3 2.2-27.5 9.5-37.2 35.8-65.3 71.4-76.1 12.8-3.9 20.6-4.9 35.9-4.5 11.4.3 16.6.9 24.1 2.9zm192.1 146.4c6.8 3 13.9 10.2 17.1 17.1 3.3 7.2 3.1 19.8-.4 27.3-9.3 19.8-34.8 26.1-51.6 12.8-8.7-7-14.2-19.8-12.8-30.2 3-23.3 26.3-36.4 47.7-27zM509 474c16.7 3.2 28 15.1 28 29.5-.1 14.7-12 31.1-33.8 46.5-5.1 3.6-9.6 6.6-10 6.7-.4.2-.7-4.5-.7-10.5-.1-9.5-.4-11.4-2.8-16.5-3.9-8.5-9.7-14.9-20.3-22.3-9.9-6.9-13-10.3-14-15.3-1.5-7.3 12.9-14.8 33.6-17.6 12.2-1.7 13.7-1.7 20-.5z"/></svg>