<?xml version="1.0" standalone="no"?><!-- Generator: Gravit.io --><svg xmlns="http://www.w3.org/2000/svg" xmlns:xlink="http://www.w3.org/1999/xlink" style="isolation:isolate" viewBox="195.5 484.531 672.833 114.999" width="672.833" height="114.999"><path d=" M 303.017 598.231 L 292.947 573.866 L 240.158 573.866 L 230.087 598.231 L 195.5 598.231 L 250.022 493.01 L 237 484.531 L 279.79 484.531 L 330.63 598.231 L 303.017 598.231 Z  M 248.604 553.888 L 284.663 553.888 L 266.633 510.357 L 248.604 553.888 L 248.604 553.888 Z  M 393.815 509.545 L 393.815 509.545 Q 410.057 509.545 420.047 519.29 L 420.047 519.29 L 420.047 519.29 Q 430.036 529.036 430.036 548.203 L 430.036 548.203 L 430.036 598.231 L 404.697 598.231 L 404.697 552.101 L 404.697 552.101 Q 404.697 541.705 400.149 536.589 L 400.149 536.589 L 400.149 536.589 Q 395.601 531.473 386.993 531.473 L 386.993 531.473 L 386.993 531.473 Q 377.409 531.473 371.724 537.401 L 371.724 537.401 L 371.724 537.401 Q 366.039 543.33 366.039 555.025 L 366.039 555.025 L 366.039 598.231 L 340.701 598.231 L 340.701 510.844 L 364.902 510.844 L 364.902 521.077 L 364.902 521.077 Q 369.938 515.555 377.409 512.55 L 377.409 512.55 L 377.409 512.55 Q 384.881 509.545 393.815 509.545 L 393.815 509.545 L 393.815 509.545 Z  M 502.479 576.14 L 509.301 594.007 L 509.301 594.007 Q 505.565 596.769 500.124 598.149 L 500.124 598.149 L 500.124 598.149 Q 494.683 599.53 488.673 599.53 L 488.673 599.53 L 488.673 599.53 Q 473.08 599.53 464.552 591.571 L 464.552 591.571 L 464.552 591.571 Q 456.025 583.612 456.025 568.181 L 456.025 568.181 L 456.025 532.285 L 442.543 532.285 L 442.543 512.793 L 456.025 512.793 L 456.025 491.515 L 481.363 491.515 L 481.363 512.793 L 503.129 512.793 L 503.129 532.285 L 481.363 532.285 L 481.363 567.856 L 481.363 567.856 Q 481.363 573.379 484.206 576.384 L 484.206 576.384 L 484.206 576.384 Q 487.048 579.389 492.246 579.389 L 492.246 579.389 L 492.246 579.389 Q 498.256 579.389 502.479 576.14 L 502.479 576.14 L 502.479 576.14 Z  M 558.842 509.545 L 558.842 509.545 Q 579.145 509.545 590.028 519.209 L 590.028 519.209 L 590.028 519.209 Q 600.911 528.874 600.911 548.365 L 600.911 548.365 L 600.911 598.231 L 577.196 598.231 L 577.196 587.348 L 577.196 587.348 Q 570.049 599.53 550.558 599.53 L 550.558 599.53 L 550.558 599.53 Q 540.487 599.53 533.097 596.119 L 533.097 596.119 L 533.097 596.119 Q 525.706 592.708 521.808 586.698 L 521.808 586.698 L 521.808 586.698 Q 517.91 580.688 517.91 573.054 L 517.91 573.054 L 517.91 573.054 Q 517.91 560.872 527.087 553.888 L 527.087 553.888 L 527.087 553.888 Q 536.264 546.903 555.431 546.903 L 555.431 546.903 L 575.572 546.903 L 575.572 546.903 Q 575.572 538.619 570.537 534.153 L 570.537 534.153 L 570.537 534.153 Q 565.501 529.686 555.431 529.686 L 555.431 529.686 L 555.431 529.686 Q 548.446 529.686 541.705 531.879 L 541.705 531.879 L 541.705 531.879 Q 534.965 534.071 530.254 537.807 L 530.254 537.807 L 521.158 520.103 L 521.158 520.103 Q 528.305 515.067 538.295 512.306 L 538.295 512.306 L 538.295 512.306 Q 548.284 509.545 558.842 509.545 L 558.842 509.545 L 558.842 509.545 Z  M 556.893 582.475 L 556.893 582.475 Q 563.39 582.475 568.425 579.47 L 568.425 579.47 L 568.425 579.47 Q 573.46 576.465 575.572 570.618 L 575.572 570.618 L 575.572 561.684 L 558.192 561.684 L 558.192 561.684 Q 542.599 561.684 542.599 571.917 L 542.599 571.917 L 542.599 571.917 Q 542.599 576.79 546.416 579.632 L 546.416 579.632 L 546.416 579.632 Q 550.233 582.475 556.893 582.475 L 556.893 582.475 L 556.893 582.475 Z  M 648.015 522.377 L 648.015 522.377 Q 652.563 516.042 660.278 512.793 L 660.278 512.793 L 660.278 512.793 Q 667.993 509.545 678.064 509.545 L 678.064 509.545 L 678.064 532.934 L 678.064 532.934 Q 673.841 532.61 672.379 532.61 L 672.379 532.61 L 672.379 532.61 Q 661.496 532.61 655.324 538.701 L 655.324 538.701 L 655.324 538.701 Q 649.152 544.792 649.152 556.974 L 649.152 556.974 L 649.152 598.231 L 623.813 598.231 L 623.813 510.844 L 648.015 510.844 L 648.015 522.377 L 648.015 522.377 Z  M 779.419 554.862 L 779.419 554.862 Q 779.419 555.349 778.932 561.684 L 778.932 561.684 L 712.824 561.684 L 712.824 561.684 Q 714.61 569.806 721.27 574.516 L 721.27 574.516 L 721.27 574.516 Q 727.929 579.226 737.838 579.226 L 737.838 579.226 L 737.838 579.226 Q 744.66 579.226 749.938 577.196 L 749.938 577.196 L 749.938 577.196 Q 755.217 575.166 759.765 570.78 L 759.765 570.78 L 773.247 585.399 L 773.247 585.399 Q 760.902 599.53 737.188 599.53 L 737.188 599.53 L 737.188 599.53 Q 722.407 599.53 711.037 593.764 L 711.037 593.764 L 711.037 593.764 Q 699.667 587.998 693.495 577.765 L 693.495 577.765 L 693.495 577.765 Q 687.322 567.532 687.322 554.537 L 687.322 554.537 L 687.322 554.537 Q 687.322 541.705 693.413 531.391 L 693.413 531.391 L 693.413 531.391 Q 699.505 521.077 710.144 515.311 L 710.144 515.311 L 710.144 515.311 Q 720.783 509.545 733.939 509.545 L 733.939 509.545 L 733.939 509.545 Q 746.771 509.545 757.167 515.067 L 757.167 515.067 L 757.167 515.067 Q 767.562 520.59 773.491 530.904 L 773.491 530.904 L 773.491 530.904 Q 779.419 541.218 779.419 554.862 L 779.419 554.862 L 779.419 554.862 Z  M 734.102 528.711 L 734.102 528.711 Q 725.493 528.711 719.646 533.584 L 719.646 533.584 L 719.646 533.584 Q 713.798 538.457 712.499 546.903 L 712.499 546.903 L 755.542 546.903 L 755.542 546.903 Q 754.243 538.619 748.395 533.665 L 748.395 533.665 L 748.395 533.665 Q 742.548 528.711 734.102 528.711 L 734.102 528.711 L 734.102 528.711 Z  M 825.711 599.53 L 825.711 599.53 Q 814.829 599.53 804.433 596.85 L 804.433 596.85 L 804.433 596.85 L 792.16 591.856 L 784 596.85 L 787.865 590.109 L 796.312 571.917 L 796.312 571.917 Q 802.159 575.653 810.443 578.008 L 810.443 578.008 L 810.443 578.008 Q 818.727 580.363 826.686 580.363 L 826.686 580.363 L 826.686 580.363 Q 842.766 580.363 842.766 572.404 L 842.766 572.404 L 842.766 572.404 Q 842.766 568.669 838.381 567.044 L 838.381 567.044 L 838.381 567.044 Q 833.995 565.42 824.899 564.283 L 824.899 564.283 L 824.899 564.283 Q 814.179 562.659 807.194 560.547 L 807.194 560.547 L 807.194 560.547 Q 800.21 558.436 795.094 553.075 L 795.094 553.075 L 795.094 553.075 Q 789.977 547.715 789.977 537.807 L 789.977 537.807 L 789.977 537.807 Q 789.977 529.523 794.769 523.107 L 794.769 523.107 L 794.769 523.107 Q 799.56 516.692 808.737 513.118 L 808.737 513.118 L 808.737 513.118 Q 817.915 509.545 830.422 509.545 L 830.422 509.545 L 830.422 509.545 Q 839.68 509.545 848.857 511.575 L 848.857 511.575 L 848.857 511.575 Q 854.351 512.791 858.71 514.559 Q 860.658 515.35 868.333 508.667 L 864.044 517.179 L 855.598 535.208 L 855.598 535.208 Q 844.066 528.711 830.422 528.711 L 830.422 528.711 L 830.422 528.711 Q 822.3 528.711 818.24 530.985 L 818.24 530.985 L 818.24 530.985 Q 814.179 533.259 814.179 536.833 L 814.179 536.833 L 814.179 536.833 Q 814.179 540.893 818.564 542.518 L 818.564 542.518 L 818.564 542.518 Q 822.95 544.142 832.533 545.604 L 832.533 545.604 L 832.533 545.604 Q 843.253 547.39 850.075 549.421 L 850.075 549.421 L 850.075 549.421 Q 856.897 551.451 861.933 556.811 L 861.933 556.811 L 861.933 556.811 Q 866.968 562.171 866.968 571.755 L 866.968 571.755 L 866.968 571.755 Q 866.968 579.876 862.095 586.211 L 862.095 586.211 L 862.095 586.211 Q 857.222 592.546 847.883 596.038 L 847.883 596.038 L 847.883 596.038 Q 838.543 599.53 825.711 599.53 L 825.711 599.53 Z " fill-rule="evenodd" fill="rgb(23,23,23)"/></svg>