<?xml version="1.0" standalone="no"?><!-- Generator: Gravit.io --><svg xmlns="http://www.w3.org/2000/svg" xmlns:xlink="http://www.w3.org/1999/xlink" style="isolation:isolate" viewBox="0 0 1080 1080" width="1080" height="1080"><defs><clipPath id="_clipPath_bXtReWZloZkewd0gucrrp9NipEXKhOV7"><rect width="1080" height="1080"/></clipPath></defs><g clip-path="url(#_clipPath_bXtReWZloZkewd0gucrrp9NipEXKhOV7)"><clipPath id="_clipPath_c9G4a2uFqpWQcByPwghJ4VJ1HZky8xe2"><path d=" M 609.801 785.979 L 565.727 679.338 L 334.679 679.338 L 290.601 785.979 L 139.22 785.979 L 377.852 325.446 L 320.857 288.335 L 508.141 288.335 L 730.658 785.979 L 609.801 785.979 Z  M 371.646 591.898 L 529.469 591.898 L 450.555 401.371 L 371.646 591.898 L 371.646 591.898 Z  M 754.232 791.665 L 754.232 791.665 Q 706.603 791.665 661.102 779.935 L 661.102 779.935 L 661.102 779.935 L 607.385 758.077 L 571.671 779.935 L 588.587 750.431 L 625.558 670.808 L 625.558 670.808 Q 651.149 687.159 687.407 697.467 L 687.407 697.467 L 687.407 697.467 Q 723.664 707.774 758.499 707.774 L 758.499 707.774 L 758.499 707.774 Q 828.878 707.774 828.878 672.939 L 828.878 672.939 L 828.878 672.939 Q 828.878 656.592 809.686 649.479 L 809.686 649.479 L 809.686 649.479 Q 790.489 642.371 750.678 637.395 L 750.678 637.395 L 750.678 637.395 Q 703.758 630.287 673.186 621.043 L 673.186 621.043 L 673.186 621.043 Q 642.619 611.804 620.227 588.34 L 620.227 588.34 L 620.227 588.34 Q 597.831 564.88 597.831 521.514 L 597.831 521.514 L 597.831 521.514 Q 597.831 485.257 618.804 457.175 L 618.804 457.175 L 618.804 457.175 Q 639.774 429.098 679.94 413.455 L 679.94 413.455 L 679.94 413.455 Q 720.11 397.817 774.851 397.817 L 774.851 397.817 L 774.851 397.817 Q 815.371 397.817 855.537 406.702 L 855.537 406.702 L 855.537 406.702 Q 879.584 412.024 898.662 419.762 Q 907.188 423.224 940.78 393.974 L 922.008 431.23 L 885.042 510.139 L 885.042 510.139 Q 834.568 481.703 774.851 481.703 L 774.851 481.703 L 774.851 481.703 Q 739.302 481.703 721.533 491.656 L 721.533 491.656 L 721.533 491.656 Q 703.758 501.609 703.758 517.251 L 703.758 517.251 L 703.758 517.251 Q 703.758 535.021 722.951 542.134 L 722.951 542.134 L 722.951 542.134 Q 742.147 549.242 784.09 555.64 L 784.09 555.64 L 784.09 555.64 Q 831.01 563.458 860.868 572.347 L 860.868 572.347 L 860.868 572.347 Q 890.727 581.232 912.769 604.691 L 912.769 604.691 L 912.769 604.691 Q 934.806 628.151 934.806 670.099 L 934.806 670.099 L 934.806 670.099 Q 934.806 705.642 913.478 733.37 L 913.478 733.37 L 913.478 733.37 Q 892.149 761.097 851.274 776.381 L 851.274 776.381 L 851.274 776.381 Q 810.395 791.665 754.232 791.665 L 754.232 791.665 Z " fill-rule="evenodd" fill="rgb(255,255,255)"/></clipPath><g clip-path="url(#_clipPath_c9G4a2uFqpWQcByPwghJ4VJ1HZky8xe2)"><rect x="38.051" y="181.481" width="1001.844" height="763.948" transform="matrix(1,0,0,1,0,0)" fill="rgb(255,255,255)" fill-opacity="0.75"/><path d=" M 64.857 431.104 L 1041.571 352.364 Q 1034.87 189.857 1034.87 568.481 Q 852.259 273.623 64.857 801.351 L 64.857 431.104 Z " fill="rgb(255,221,0)"/></g></g></svg>