<svg version="1" xmlns="http://www.w3.org/2000/svg" width="400" height="400" viewBox="0 0 300.000000 300.000000"><path d="M102 44.6c0 .2 5.2 3.8 11.5 7.9 6.3 4.1 11.5 7.8 11.5 8.1 0 .6-15.3 30.6-26 50.9-2.6 4.9-8.9 17.1-14 27-5.1 9.9-11.6 22.5-14.5 28-6.2 11.8-15.5 29.8-29 56-5.4 10.4-11.3 21.8-13.1 25.2-1.9 3.4-3.4 6.6-3.4 7.1 0 .6 13.6 1 31.9 1h31.9l1.1-2.5c.6-1.4 4.8-11.3 9.2-22.2 4.5-10.8 8.5-19.8 8.9-20.1.7-.4 90.3-.5 96.2-.1.9.1 2 1.4 2.6 2.9.5 1.6 4.6 11.6 9.1 22.3l8.2 19.5h25.5c14 0 25.4-.2 25.4-.6 0-.4-15.1-34.6-29.4-66.5-.7-1.7-9.5-21.2-19.4-43.5-10-22.3-24.1-54-31.5-70.5l-13.4-30-39.6-.2c-21.9 0-39.7.1-39.7.3zm71 87.9c8.4 20.3 15.5 37.8 15.8 38.7.4 1.7-1.6 1.8-32.2 1.8-17.9 0-32.6-.3-32.6-.6 0-.5 3-7.7 24.7-60.2 4.2-10.1 7.9-17.9 8.3-17.5.4.4 7.6 17.4 16 37.8z"/></svg>