<svg version="1" xmlns="http://www.w3.org/2000/svg" width="2880" height="2880" viewBox="0 0 2160.000000 2160.000000"><path d="M0 1080v1080h2160V0H0v1080zm1017.4-501.2c.8 1.6 22.7 50.3 48.7 108.3 25.9 58 66.3 148.1 89.6 200.4 23.4 52.2 43.2 96.6 44.1 98.5l1.5 3.5.9-3c7.7-25.2 16.1-44.1 26.8-60.5 36.8-56 99.3-95.2 185-116 33.1-8.1 65.6-12.2 111-14 85.5-3.6 181.4 10.5 257.7 37.7 17.7 6.3 18.4 6.4 23.3 5.4 12.5-2.7 33.9-16.7 63.2-41.3 6.5-5.4 12-9.8 12.3-9.8.3 0-8.7 18.3-19.9 40.7-11.2 22.5-26.9 54.7-34.9 71.8-32.1 68.6-55.9 119-56.3 119.4-.2.2-9-3.9-19.6-9.2-34-16.8-67.3-28.7-101.8-36.1-32-6.9-52.9-9.3-88-10.3-74.3-2-124.9 12.9-144.3 42.5-5.7 8.7-7.8 14.8-8.4 25.2-1.3 21.1 9.1 38.2 29.1 47.9 20.6 9.9 60.4 19.6 122.5 29.6 71.5 11.6 138.7 26.7 174.1 39 47.4 16.6 92.5 53.1 114.2 92.5 19.2 34.8 26.6 91 18.2 138-9.7 54.1-41.5 102-90.9 136.5-68.7 48-171 71.7-291.4 67.5-35.6-1.3-55.8-3.1-89.6-8.2l-15-2.3 40.6-.5 40.6-.5-39-87.2-39-87.1-3.3-.7c-6.1-1.1-40.5-12.6-56.4-18.7-18.1-7.1-47.3-21.1-61.5-29.6l-10-6-1.6 3.1c-4.2 8.2-64.9 139.6-64.9 140.6 0 1.3 13.5 34.7 14.9 37 .7 1 2.3.5 7.9-2.8l7-4.2 54.4 21.9c57.6 23.4 60.6 24.3 95.8 31.1 5.8 1.1 11.4 2.2 12.5 2.4 1.1.3-34.1.5-78.2.6l-80.1.1-3-7.3c-1.7-3.9-5.8-14-9.2-22.2-3.4-8.3-6.5-15.3-6.9-15.7-.4-.4-11.2 5.7-24.1 13.5-12.9 7.9-25.7 15.6-28.4 17.2l-4.9 2.8 1.3-2.4c.7-1.3 8.2-14.5 16.7-29.2 15.7-27.3 22.3-39.9 22.3-42.7 0-.8-11.6-29.7-25.8-64l-25.9-62.5-230.9-.2-230.9-.3-43.9 106.5-44 106.5H277.8l6.5-12.3c3.6-6.7 16.6-31.8 29-55.7 23.2-44.9 317.6-613.1 396.8-765.9 24.7-47.5 44.7-86.7 44.4-87-.2-.4-25.6-17.1-56.4-37.1-30.8-20.1-56.1-36.8-56.1-37.3 0-.4 84.1-.7 187-.7h186.9l1.5 2.8z"/><path d="M822.4 993.8l-78.1 188.7 156.5.3c86.1.1 156.7.1 156.8-.1.2-.2-11.1-28-25.1-61.8-14-33.8-49.2-118.7-78.2-188.7-29-69.9-53-127.2-53.3-127.2-.3 0-35.6 85-78.6 188.8zM1199.7 1002.7c-5.3 30.8-4.4 68.8 2.4 98.3 4.8 21 13 40.5 24 57.1 7.8 11.8 30 34.1 45.2 45.5 9.6 7.2 28.5 19.2 32.9 20.9 1 .4-16.4-39.5-46.9-107.7-26.6-59.6-49.8-111.5-51.5-115.3-1.8-3.9-3.4-7.3-3.8-7.8-.4-.4-1.4 3.7-2.3 9zM1308 1227.6c0 .6 74.9 168.6 75.5 169.2.7.7 29.2 7.3 41.5 9.6 70.2 12.9 146.1 11.3 186.2-4 12-4.6 16.3-6.8 24.3-12.9 15.5-11.8 22.3-26.4 21.3-45.9-.7-13.6-3.3-19.3-12.7-28.6-5.8-5.8-9.6-8.5-16.1-11.7-20.2-9.8-60.8-19.3-113-26.3-84.8-11.5-171.7-32-202.8-47.9-2.3-1.2-4.2-1.8-4.2-1.5z"/></svg>